<svg class="diagram-root" style="background: #f5f6f6" xmlns="http://www.w3.org/2000/svg" xmlns:xlink="http://www.w3.org/1999/xlink"><style>.diagram-root { font-family: "Helvetica Neue", sans-serif; font-size: 12px; } .t { overflow: visible; } .t-bg { y: 40; fill: #fff;   } .th { fill: #005aa0;   } .tht { fill: #fff; font-size: 14px;  } .tf { fill: #323c46; overflow: visible; } .tf.pk { fill: #005aa0; font-weight: bold; } .tf.fk { font-weight: bold; } .ty { fill: #adb1b5; font-weight: normal; text-anchor: end; } .r { fill: transparent; stroke: #c3c3c3; stroke-width: 1; } .l { stroke: 1; } .i { fill: #c2c7ce; stroke: #c2c7ce; } .i.ix { fill: #afb3b6; stroke: #000; } .fa { fill: transparent; overflow: visible; } .fa .bg.hover { fill: #f7f7f7; } .c { cy: 12; r: 4; stroke: #d2d2dc; fill: #d2d2dc; } .hr { fill: transparent; stroke: #323c46; stroke-opacity: 0.035; stroke-width: 13; } .dc { stroke: #fa5a3c; fill: #fa5a3c; } .x { stroke: white; stroke-width: 1; } .hl .th { fill: #1b9bff; } .hl .tht {  } .fhl .bg { fill: #e7f4ff; } .fhls .bg {  } .r.hl { stroke: #1b9bff; } .dim { opacity: 0.25; }</style><g class="drawing-wrapper" transform="translate(-42, 14) scale(1,1)"><g class="rs"><path d="M 78 73 m -1, 0 a 1,1 0 1,0 2,0 a 1,1 0 1,0 -2,0 M 78 73 m -0.5, 0 a 0.5,0.5 0 1,0 1,0 a 0.5,0.5 0 1,0 -1,0  M78 73 L78 73 66 73 M 78 79 m -1, 0 a 1,1 0 1,0 2,0 a 1,1 0 1,0 -2,0 M 78 79 m -0.5, 0 a 0.5,0.5 0 1,0 1,0 a 0.5,0.5 0 1,0 -1,0  M78 79 L78 79 71 73 78 67 M 78 67 m -1, 0 a 1,1 0 1,0 2,0 a 1,1 0 1,0 -2,0 M 78 67 m -0.5, 0 a 0.5,0.5 0 1,0 1,0 a 0.5,0.5 0 1,0 -1,0  M66 73 C 16 73, 11.2 253, 74 253 M 86 253 m -1, 0 a 1,1 0 1,0 2,0 a 1,1 0 1,0 -2,0 M 86 253 m -0.5, 0 a 0.5,0.5 0 1,0 1,0 a 0.5,0.5 0 1,0 -1,0  M86 253 L86 253 74 253 M80 259 L80 259 80 247" id="h4114812566" class="r"></path><path d="M 204.72 228 m -1, 0 a 1,1 0 1,0 2,0 a 1,1 0 1,0 -2,0 M 204.72 228 m -0.5, 0 a 0.5,0.5 0 1,0 1,0 a 0.5,0.5 0 1,0 -1,0  M204.72 228 L204.72 228 216.72 228 M 204.72 234 m -1, 0 a 1,1 0 1,0 2,0 a 1,1 0 1,0 -2,0 M 204.72 234 m -0.5, 0 a 0.5,0.5 0 1,0 1,0 a 0.5,0.5 0 1,0 -1,0  M204.72 234 L204.72 234 211.72 228 204.72 222 M 204.72 222 m -1, 0 a 1,1 0 1,0 2,0 a 1,1 0 1,0 -2,0 M 204.72 222 m -0.5, 0 a 0.5,0.5 0 1,0 1,0 a 0.5,0.5 0 1,0 -1,0  M216.72 228 Q 239.79 228, 262.86 258.5 T 309 289 M 321 289 m -1, 0 a 1,1 0 1,0 2,0 a 1,1 0 1,0 -2,0 M 321 289 m -0.5, 0 a 0.5,0.5 0 1,0 1,0 a 0.5,0.5 0 1,0 -1,0  M321 289 L321 289 309 289 M315 295 L315 295 315 283" id="h3422177530" class="r"></path><path d="M 321 264 m -1, 0 a 1,1 0 1,0 2,0 a 1,1 0 1,0 -2,0 M 321 264 m -0.5, 0 a 0.5,0.5 0 1,0 1,0 a 0.5,0.5 0 1,0 -1,0  M321 264 L321 264 309 264 M 321 270 m -1, 0 a 1,1 0 1,0 2,0 a 1,1 0 1,0 -2,0 M 321 270 m -0.5, 0 a 0.5,0.5 0 1,0 1,0 a 0.5,0.5 0 1,0 -1,0  M321 270 L321 270 314 264 321 258 M 321 258 m -1, 0 a 1,1 0 1,0 2,0 a 1,1 0 1,0 -2,0 M 321 258 m -0.5, 0 a 0.5,0.5 0 1,0 1,0 a 0.5,0.5 0 1,0 -1,0  M309 264 Q 285.93 264, 262.86 258.5 T 216.72 253 M 204.72 253 m -1, 0 a 1,1 0 1,0 2,0 a 1,1 0 1,0 -2,0 M 204.72 253 m -0.5, 0 a 0.5,0.5 0 1,0 1,0 a 0.5,0.5 0 1,0 -1,0  M204.72 253 L204.72 253 216.72 253 M210.72 259 L210.72 259 210.72 247" id="h1177001992" class="r"></path><path d="M 321 289 m -1, 0 a 1,1 0 1,0 2,0 a 1,1 0 1,0 -2,0 M 321 289 m -0.5, 0 a 0.5,0.5 0 1,0 1,0 a 0.5,0.5 0 1,0 -1,0  M321 289 L321 289 309 289 M 321 295 m -1, 0 a 1,1 0 1,0 2,0 a 1,1 0 1,0 -2,0 M 321 295 m -0.5, 0 a 0.5,0.5 0 1,0 1,0 a 0.5,0.5 0 1,0 -1,0  M321 295 L321 295 314 289 321 283 M 321 283 m -1, 0 a 1,1 0 1,0 2,0 a 1,1 0 1,0 -2,0 M 321 283 m -0.5, 0 a 0.5,0.5 0 1,0 1,0 a 0.5,0.5 0 1,0 -1,0  M309 289 Q 279.26 289, 249.52 357 T 190.03 425 M 178.03 425 m -1, 0 a 1,1 0 1,0 2,0 a 1,1 0 1,0 -2,0 M 178.03 425 m -0.5, 0 a 0.5,0.5 0 1,0 1,0 a 0.5,0.5 0 1,0 -1,0  M178.03 425 L178.03 425 190.03 425 M184.03 431 L184.03 431 184.03 419" id="h451625757" class="r"></path><path d="M 266 480 m -1, 0 a 1,1 0 1,0 2,0 a 1,1 0 1,0 -2,0 M 266 480 m -0.5, 0 a 0.5,0.5 0 1,0 1,0 a 0.5,0.5 0 1,0 -1,0  M266 480 L266 480 254 480 M 266 486 m -1, 0 a 1,1 0 1,0 2,0 a 1,1 0 1,0 -2,0 M 266 486 m -0.5, 0 a 0.5,0.5 0 1,0 1,0 a 0.5,0.5 0 1,0 -1,0  M266 486 L266 486 259 480 266 474 M 266 474 m -1, 0 a 1,1 0 1,0 2,0 a 1,1 0 1,0 -2,0 M 266 474 m -0.5, 0 a 0.5,0.5 0 1,0 1,0 a 0.5,0.5 0 1,0 -1,0  M254 480 Q 238.5 480, 223 530.5 T 192 581 M 180 581 m -1, 0 a 1,1 0 1,0 2,0 a 1,1 0 1,0 -2,0 M 180 581 m -0.5, 0 a 0.5,0.5 0 1,0 1,0 a 0.5,0.5 0 1,0 -1,0  M180 581 L180 581 192 581 M186 587 L186 587 186 575" id="h2193292683" class="r"></path><path d="M 178.03 425 m -1, 0 a 1,1 0 1,0 2,0 a 1,1 0 1,0 -2,0 M 178.03 425 m -0.5, 0 a 0.5,0.5 0 1,0 1,0 a 0.5,0.5 0 1,0 -1,0  M178.03 425 L178.03 425 190.03 425 M 178.03 431 m -1, 0 a 1,1 0 1,0 2,0 a 1,1 0 1,0 -2,0 M 178.03 431 m -0.5, 0 a 0.5,0.5 0 1,0 1,0 a 0.5,0.5 0 1,0 -1,0  M178.03 431 L178.03 431 185.03 425 178.03 419 M 178.03 419 m -1, 0 a 1,1 0 1,0 2,0 a 1,1 0 1,0 -2,0 M 178.03 419 m -0.5, 0 a 0.5,0.5 0 1,0 1,0 a 0.5,0.5 0 1,0 -1,0  M190.03 425 Q 206.03 425, 222.02 440 T 254 455 M 266 455 m -1, 0 a 1,1 0 1,0 2,0 a 1,1 0 1,0 -2,0 M 266 455 m -0.5, 0 a 0.5,0.5 0 1,0 1,0 a 0.5,0.5 0 1,0 -1,0  M266 455 L266 455 254 455 M260 461 L260 461 260 449" id="h3177548053" class="r"></path></g><g class="hrs"></g><g class="ts"><svg width="135.39" height="100" x="78" y="16" id="h2876837712" class="t"><rect height="40" width="135.39" class="th"></rect><text x="13" y="25" class="tht">Department</text><rect height="60" width="135.39" class="t-bg"></rect><text x="13" y="61" class="tf pk">dept_no<tspan x="122.38999999999999" class="ty">ing</tspan></text><path d="M7,14A2,2 0 0,1 5,12A2,2 0 0,1 7,10A2,2 0 0,1 9,12A2,2 0 0,1 7,14M12.65,10C11.83,7.67 9.61,6 7, 6A6, 6 0 0, 0 1, 12A6, 6 0 0, 0 7, 18C9.61, 18 11.83, 16.33 12.65, 14H17V18H21V14H23V10H12.65Z" class="i pk" transform="translate(86.37632812499999, 48) scale(0.65)"></path><text x="13" y="86" class="tf">dept_name<tspan x="122.38999999999999" class="ty">string</tspan></text></svg><svg width="118.72" height="100" x="86" y="171" id="h3418542199" class="t"><rect height="40" width="118.72" class="th"></rect><text x="13" y="25" class="tht">dept_no</text><rect height="60" width="118.72" class="t-bg"></rect><text x="13" y="61" class="tf fk">emp_no<tspan x="105.72" class="ty">int</tspan></text><text x="13" y="86" class="tf fk">dept_no<tspan x="105.72" class="ty">string</tspan></text></svg><svg width="118.72" height="100" x="321" y="207" id="h1676682957" class="t"><rect height="40" width="118.72" class="th"></rect><text x="13" y="25" class="tht">dept_manager</text><rect height="60" width="118.72" class="t-bg"></rect><text x="13" y="61" class="tf fk">dept_no<tspan x="105.72" class="ty">string</tspan></text><text x="13" y="86" class="tf fk">emp_no<tspan x="105.72" class="ty">nt</tspan></text></svg><svg width="171.82" height="225" x="266" y="398" id="h1639608377" class="t"><rect height="40" width="171.82" class="th"></rect><text x="13" y="25" class="tht">employees</text><rect height="185" width="171.82" class="t-bg"></rect><text x="13" y="61" class="tf fk">emp_no<tspan x="158.82" class="ty">int</tspan></text><text x="13" y="86" class="tf fk">title_id<tspan x="158.82" class="ty">string</tspan></text><text x="13" y="111" class="tf">birth_date<tspan x="158.82" class="ty">VARCHAR(8)</tspan></text><text x="13" y="136" class="tf">first_name<tspan x="158.82" class="ty">string</tspan></text><text x="13" y="161" class="tf">last_name<tspan x="158.82" class="ty">string</tspan></text><text x="13" y="186" class="tf">sex<tspan x="158.82" class="ty">string</tspan></text><text x="13" y="211" class="tf">hire_date<tspan x="158.82" class="ty">VARCHAR(8)</tspan></text></svg><svg width="114.03" height="100" x="64" y="368" id="h2472833127" class="t"><rect height="40" width="114.03" class="th"></rect><text x="13" y="25" class="tht">salaries</text><rect height="60" width="114.03" class="t-bg"></rect><text x="13" y="61" class="tf fk">emp_no<tspan x="101.03" class="ty">int</tspan></text><text x="13" y="86" class="tf">salary<tspan x="101.03" class="ty">money</tspan></text></svg><svg width="90" height="100" x="90" y="524" id="h311790747" class="t"><rect height="40" width="90" class="th"></rect><text x="13" y="25" class="tht">titles</text><rect height="60" width="90" class="t-bg"></rect><text x="13" y="61" class="tf fk">title_id</text><text x="13" y="86" class="tf">title</text></svg></g></g><text class="qdbd-link" x="10" y="20">www.quickdatabasediagrams.com</text></svg>